<?xml version="1.0" standalone="no"?>
<!DOCTYPE svg PUBLIC "-//W3C//DTD SVG 20010904//EN"
 "http://www.w3.org/TR/2001/REC-SVG-20010904/DTD/svg10.dtd">
<svg version="1.0" xmlns="http://www.w3.org/2000/svg"
 width="621.000000pt" height="621.000000pt" viewBox="0 0 621.000000 621.000000"
 preserveAspectRatio="xMidYMid meet">
<metadata>
Created by potrace 1.14, written by Peter Selinger 2001-2017
</metadata>
<g transform="translate(0.000000,621.000000) scale(0.100000,-0.100000)"
fill="#000000" stroke="none">
<path d="M2888 6205 c-1 -2 -32 -6 -68 -9 -146 -14 -290 -39 -430 -77 -74 -20
-256 -81 -295 -98 -229 -104 -374 -186 -530 -300 -49 -36 -92 -68 -95 -71 -3
-3 -34 -30 -70 -60 -317 -269 -601 -674 -760 -1081 -22 -57 -40 -106 -40 -110
0 -4 -5 -20 -12 -36 -6 -15 -12 -32 -13 -38 -2 -5 -10 -35 -19 -66 -9 -31 -19
-65 -21 -75 -5 -20 -41 -180 -50 -224 -13 -61 -50 -324 -60 -420 -20 -216 -27
-699 -13 -865 39 -438 157 -861 339 -1210 61 -119 85 -161 120 -213 16 -24 29
-45 29 -48 0 -10 144 -204 152 -204 4 0 8 -6 8 -12 0 -21 188 -222 306 -328
77 -70 103 -90 194 -158 47 -34 90 -66 95 -70 68 -52 338 -194 460 -242 44
-17 89 -35 100 -40 82 -38 393 -112 525 -125 30 -4 66 -9 80 -12 40 -9 418
-11 503 -3 256 27 538 93 722 170 271 114 443 213 680 393 81 61 317 292 380
372 22 28 42 52 45 55 32 29 188 258 243 355 65 115 168 340 210 456 41 114
100 309 111 369 2 14 12 58 20 98 9 40 18 91 21 115 3 23 7 56 10 72 3 17 7
43 10 59 26 166 26 779 0 927 -2 13 -6 51 -9 84 -15 186 -73 512 -126 702
-106 376 -253 686 -450 948 -70 93 -166 204 -226 260 -102 96 -129 119 -215
186 -77 61 -212 153 -314 216 -163 100 -472 227 -680 279 -16 4 -34 8 -40 10
-40 11 -188 38 -300 55 -71 10 -518 22 -527 14z"/>
</g>
</svg>
